<mxfile host="app.diagrams.net" modified="2022-10-07T10:23:54.988Z" agent="5.0 (X11)" etag="cjjfVr8k1u7qhdt2qvIq" version="20.4.0" type="gitlab">
  <diagram id="gJd1Qkqm23LiI_lXcx77" name="Page-1">
    <mxGraphModel dx="1102" dy="628" grid="1" gridSize="10" guides="1" tooltips="1" connect="1" arrows="1" fold="1" page="1" pageScale="1" pageWidth="850" pageHeight="1100" math="0" shadow="0">
      <root>
        <mxCell id="0" />
        <mxCell id="1" parent="0" />
        <mxCell id="DhnhkY9wPwYXgOMlFzrj-1" value="TEST" style="whiteSpace=wrap;html=1;aspect=fixed;" vertex="1" parent="1">
          <mxGeometry x="260" y="200" width="80" height="80" as="geometry" />
        </mxCell>
      </root>
    </mxGraphModel>
  </diagram>
</mxfile>
